<svg width="64" height="64" viewBox="0 0 64 64" fill="none" xmlns="http://www.w3.org/2000/svg">
<g clip-path="url(#clip0_27_58)">
<path d="M58.1999 3.36502C57.3036 5.51419 56.1559 7.54969 54.7809 9.42902C51.7793 6.41486 48.2084 4.02748 44.2759 2.40568C40.3434 0.783879 36.1277 -0.0399821 31.874 -0.0180042C27.6202 0.00397365 23.4133 0.871352 19.4978 2.5337C15.5822 4.19605 12.0362 6.6202 9.06589 9.66521C6.09557 12.7102 3.76022 16.3153 2.19561 20.2709C0.631001 24.2266 -0.131647 28.4537 -0.0479921 32.7067C0.0356624 36.9597 0.96395 41.1536 2.6829 45.0447C4.40185 48.9357 6.87716 52.4462 9.96492 55.372L11.1509 56.419C15.6768 60.2326 21.1694 62.7198 27.0211 63.6055C32.8728 64.4912 38.8554 63.7408 44.3071 61.4375C49.7589 59.1341 54.4672 55.3676 57.9111 50.5545C61.3551 45.7414 63.4004 40.0694 63.8209 34.166C64.6959 25.996 62.2969 15.656 58.2009 3.36602L58.1999 3.36502ZM14.5299 55.558C14.1884 55.98 13.7294 56.2912 13.211 56.4522C12.6926 56.6133 12.138 56.6169 11.6175 56.4627C11.097 56.3086 10.6339 56.0034 10.2869 55.586C9.93985 55.1685 9.72442 54.6575 9.66786 54.1176C9.61131 53.5777 9.71618 53.0332 9.96919 52.5529C10.2222 52.0726 10.612 51.6781 11.0892 51.4194C11.5665 51.1607 12.1098 51.0494 12.6503 51.0995C13.1909 51.1496 13.7044 51.359 14.1259 51.701C14.6906 52.1592 15.0503 52.8227 15.126 53.5459C15.2018 54.2691 14.9874 54.9928 14.5299 55.558ZM58.0679 45.948C50.1479 56.498 33.2379 52.938 22.3959 53.45C22.3959 53.45 20.4739 53.563 18.5389 53.88C18.5389 53.88 19.2689 53.57 20.2019 53.217C27.8159 50.567 31.4149 50.057 36.0399 47.677C44.7479 43.25 53.3619 33.555 55.1519 23.477C51.8389 33.172 41.7789 41.509 32.6219 44.895C26.3459 47.208 15.0079 49.461 15.0079 49.461L14.5509 49.216C6.83692 45.466 6.59892 28.759 20.6279 23.371C26.7709 21.005 32.6479 22.304 39.2819 20.721C46.3659 19.038 54.5619 13.731 57.8969 6.80502C61.6269 17.885 66.1209 35.227 58.0629 45.955L58.0679 45.948Z" fill="#68BD45"/>
</g>
<defs>
<clipPath id="clip0_27_58">
<rect width="64" height="64" fill="white"/>
</clipPath>
</defs>
</svg>
