<svg width="67" height="44" viewBox="0 0 67 44" fill="none" xmlns="http://www.w3.org/2000/svg">
<path d="M37.5875 44H62.4942C63.2854 44 64.0625 43.7969 64.7476 43.4107C65.4284 43.0288 65.9972 42.4732 66.397 41.7999C66.7912 41.1345 66.9996 40.3744 67 39.5997C67 38.8273 66.7909 38.0689 66.3949 37.4001L49.6685 9.11458C49.2687 8.44148 48.6999 7.88611 48.0194 7.50425C47.3308 7.11713 46.5552 6.91415 45.7665 6.9147C44.9753 6.9147 44.1985 7.11807 43.5134 7.50425C42.8329 7.88612 42.2643 8.4415 41.8645 9.11458L37.5875 16.3517L29.2256 2.19936C28.8255 1.5263 28.2565 0.971027 27.5757 0.589288C26.887 0.202298 26.1112 -0.000583975 25.3223 1.26256e-06C24.5314 1.26256e-06 23.7541 0.203367 23.0689 0.589288C22.3883 0.971064 21.8194 1.52633 21.4193 2.19936L0.60457 37.4001C0.209626 38.065 0.00072544 38.825 0 39.5997C0 40.3721 0.207543 41.131 0.603 41.7999C1.00279 42.4732 1.57163 43.0288 2.25235 43.4107C2.94108 43.7978 3.71692 44.0007 4.50575 44H20.14C26.3347 44 30.9027 41.3436 34.0462 36.1609L41.6777 23.2575L45.7652 16.3517L58.033 37.0945H41.6777L37.5875 44ZM19.8849 37.0877L8.97434 37.085L25.3297 9.42964L33.4903 23.2575L28.0264 32.4996C25.9389 35.8622 23.5675 37.0874 19.8851 37.0874L19.8849 37.0877Z" fill="#2E75FA"/>
</svg>
