<svg width="405" height="220" viewBox="0 0 405 220" fill="none" xmlns="http://www.w3.org/2000/svg">
<path d="M190.919 92.651L113.695 15.9913L95.0861 23.1347L86.5061 79.5799L106.879 86.9349L118.044 58.5028L160.955 100.341L127.788 141.405L98.4382 128.151L101.638 118.999L80.6277 112.935L70.4542 138.893L134.598 169.889L190.919 92.651Z" fill="#2E75FA"/>
<path d="M30.9372 140.229L86.691 208.535L102.28 204.368L113.938 159.649L98.1465 151.991L86.7629 173.934L55.7187 136.59L85.8858 106.35L108.411 119.523L105.065 126.62L121.477 133.292L131.854 113.257L82.7964 82.834L30.9372 140.229Z" fill="#2E75FA"/>
<path d="M385.681 219.253C381.776 219.253 378.635 218.128 376.258 215.878C373.881 213.586 372.693 210.572 372.693 206.837V198.942C372.693 196.48 373.223 194.315 374.285 192.448C375.388 190.538 376.916 189.073 378.869 188.055C380.864 186.993 383.156 186.463 385.745 186.463H391.348C393.937 186.463 396.208 186.993 398.161 188.055C400.156 189.073 401.684 190.538 402.745 192.448C403.848 194.315 404.4 196.48 404.4 198.942V206.837C404.4 210.572 403.19 213.586 400.771 215.878C398.394 218.128 395.211 219.253 391.221 219.253H385.681ZM391.157 212.949C392.94 212.949 394.362 212.355 395.423 211.167C396.526 209.936 397.078 208.344 397.078 206.391V199.324C397.078 197.372 396.548 195.801 395.486 194.613C394.425 193.382 393.003 192.766 391.221 192.766H385.872C384.09 192.766 382.668 193.382 381.607 194.613C380.545 195.801 380.015 197.372 380.015 199.324V206.391C380.015 208.344 380.545 209.936 381.607 211.167C382.668 212.355 384.047 212.949 385.745 212.949H391.157Z" fill="#0378FF"/>
<path d="M350.149 219.253C346.499 219.253 343.57 218.276 341.363 216.324C339.156 214.371 338.052 211.782 338.052 208.556H345.247C345.247 209.914 345.693 211.018 346.584 211.867C347.475 212.673 348.664 213.077 350.149 213.077H355.816C357.259 213.077 358.384 212.843 359.19 212.376C360.039 211.867 360.464 211.188 360.464 210.339V208.938C360.464 208.344 360.209 207.835 359.7 207.41C359.233 206.986 358.575 206.689 357.726 206.519L346.711 204.609C344.249 204.184 342.297 203.293 340.854 201.935C339.411 200.534 338.689 198.921 338.689 197.096V194.995C338.689 192.363 339.729 190.283 341.809 188.755C343.931 187.227 346.839 186.463 350.531 186.463H355.625C358.978 186.463 361.695 187.375 363.775 189.201C365.855 191.026 366.894 193.424 366.894 196.395H359.7C359.7 195.249 359.318 194.337 358.554 193.658C357.832 192.978 356.856 192.639 355.625 192.639H350.595C349.109 192.639 347.963 192.872 347.157 193.339C346.35 193.806 345.947 194.464 345.947 195.313V196.586C345.947 197.181 346.181 197.69 346.648 198.114C347.157 198.539 347.815 198.815 348.621 198.942L360.018 200.979C362.353 201.446 364.22 202.338 365.621 203.654C367.022 204.969 367.722 206.519 367.722 208.301V210.657C367.722 213.289 366.64 215.39 364.475 216.96C362.31 218.489 359.424 219.253 355.816 219.253H350.149Z" fill="#0378FF"/>
<path d="M315.827 219.253C312.177 219.253 309.248 218.276 307.041 216.324C304.834 214.371 303.73 211.782 303.73 208.556H310.925C310.925 209.914 311.37 211.018 312.262 211.867C313.153 212.673 314.342 213.077 315.827 213.077H321.494C322.937 213.077 324.062 212.843 324.868 212.376C325.717 211.867 326.142 211.188 326.142 210.339V208.938C326.142 208.344 325.887 207.835 325.378 207.41C324.911 206.986 324.253 206.689 323.404 206.519L312.389 204.609C309.927 204.184 307.975 203.293 306.531 201.935C305.088 200.534 304.367 198.921 304.367 197.096V194.995C304.367 192.363 305.407 190.283 307.486 188.755C309.609 187.227 312.516 186.463 316.209 186.463H321.303C324.656 186.463 327.373 187.375 329.452 189.201C331.532 191.026 332.572 193.424 332.572 196.395H325.378C325.378 195.249 324.996 194.337 324.231 193.658C323.51 192.978 322.534 192.639 321.303 192.639H316.273C314.787 192.639 313.641 192.872 312.835 193.339C312.028 193.806 311.625 194.464 311.625 195.313V196.586C311.625 197.181 311.858 197.69 312.325 198.114C312.835 198.539 313.493 198.815 314.299 198.942L325.696 200.979C328.03 201.446 329.898 202.338 331.299 203.654C332.7 204.969 333.4 206.519 333.4 208.301V210.657C333.4 213.289 332.317 215.39 330.153 216.96C327.988 218.489 325.102 219.253 321.494 219.253H315.827Z" fill="#0378FF"/>
<path d="M280.852 219.253C278.262 219.253 275.97 218.764 273.975 217.788C272.023 216.812 270.495 215.432 269.391 213.65C268.33 211.867 267.799 209.808 267.799 207.474V198.942C267.799 196.48 268.33 194.315 269.391 192.448C270.495 190.538 272.023 189.073 273.975 188.055C275.97 186.993 278.262 186.463 280.852 186.463H285.945C289.808 186.463 292.906 187.588 295.241 189.837C297.575 192.087 298.743 195.079 298.743 198.815V205.182H275.121V207.474C275.121 209.172 275.631 210.53 276.649 211.549C277.711 212.567 279.111 213.077 280.852 213.077H285.754C287.452 213.077 288.81 212.673 289.829 211.867C290.89 211.018 291.421 209.914 291.421 208.556H298.615C298.615 211.782 297.427 214.371 295.05 216.324C292.673 218.276 289.553 219.253 285.69 219.253H280.852ZM291.548 199.706V198.815C291.548 196.947 291.039 195.44 290.02 194.294C289.001 193.148 287.664 192.575 286.009 192.575H280.852C279.111 192.575 277.689 193.191 276.586 194.422C275.525 195.61 274.994 197.181 274.994 199.133V199.706H291.548Z" fill="#0378FF"/>
<path d="M245.594 219.253C241.689 219.253 238.548 218.128 236.171 215.878C233.837 213.628 232.669 210.657 232.669 206.964V198.942C232.669 196.48 233.2 194.315 234.261 192.448C235.322 190.538 236.829 189.073 238.782 188.055C240.734 186.993 242.984 186.463 245.531 186.463H250.624C254.275 186.463 257.203 187.524 259.411 189.646C261.66 191.726 262.785 194.485 262.785 197.923H255.59C255.59 196.395 255.123 195.164 254.19 194.231C253.298 193.254 252.11 192.766 250.624 192.766H245.594C243.939 192.766 242.581 193.382 241.519 194.613C240.501 195.843 239.991 197.435 239.991 199.388V206.519C239.991 208.429 240.501 209.978 241.519 211.167C242.581 212.355 243.96 212.949 245.658 212.949H250.688C252.258 212.949 253.511 212.376 254.444 211.23C255.421 210.084 255.909 208.599 255.909 206.773H263.103C263.103 210.509 261.957 213.522 259.665 215.814C257.416 218.107 254.423 219.253 250.688 219.253H245.594Z" fill="#0378FF"/>
<path d="M208.351 219.253C204.446 219.253 201.305 218.128 198.928 215.878C196.551 213.586 195.363 210.572 195.363 206.837V198.942C195.363 196.48 195.893 194.315 196.955 192.448C198.058 190.538 199.586 189.073 201.539 188.055C203.534 186.993 205.826 186.463 208.415 186.463H214.018C216.607 186.463 218.878 186.993 220.831 188.055C222.825 189.073 224.354 190.538 225.415 192.448C226.518 194.315 227.07 196.48 227.07 198.942V206.837C227.07 210.572 225.86 213.586 223.441 215.878C221.064 218.128 217.881 219.253 213.891 219.253H208.351ZM213.827 212.949C215.61 212.949 217.032 212.355 218.093 211.167C219.196 209.936 219.748 208.344 219.748 206.391V199.324C219.748 197.372 219.218 195.801 218.156 194.613C217.095 193.382 215.673 192.766 213.891 192.766H208.542C206.76 192.766 205.338 193.382 204.276 194.613C203.215 195.801 202.685 197.372 202.685 199.324V206.391C202.685 208.344 203.215 209.936 204.276 211.167C205.338 212.355 206.717 212.949 208.415 212.949H213.827Z" fill="#0378FF"/>
<path d="M173.817 186.974H180.63V191.304C181.478 189.988 182.688 188.927 184.259 188.12C185.872 187.271 187.527 186.847 189.225 186.847H193.045V193.214H189.225C186.805 193.214 184.853 193.956 183.367 195.442C181.882 196.928 181.139 198.859 181.139 201.236V218.745H173.817V186.974Z" fill="#0378FF"/>
<path d="M133.159 174.176H156.017C159.752 174.176 162.766 175.237 165.058 177.359C167.35 179.439 168.496 182.198 168.496 185.636V191.749C168.496 195.356 167.286 198.264 164.867 200.471C162.49 202.636 159.349 203.718 155.444 203.718H140.609V218.744H133.159V174.176ZM155.316 197.224C157.057 197.224 158.436 196.693 159.455 195.632C160.516 194.571 161.047 193.192 161.047 191.494V185.827C161.047 184.257 160.58 183.005 159.646 182.071C158.712 181.137 157.46 180.67 155.889 180.67H140.609V197.224H155.316Z" fill="#0378FF"/>
<path d="M315.812 172.45C312.432 172.45 309.504 171.707 307.026 170.22C304.548 168.733 302.625 166.653 301.258 163.979C299.907 161.306 299.231 158.182 299.231 154.608C299.231 151.033 299.907 147.902 301.258 145.213C302.625 142.525 304.548 140.437 307.026 138.951C309.504 137.464 312.432 136.72 315.812 136.72C319.191 136.72 322.12 137.464 324.598 138.951C327.076 140.437 328.991 142.525 330.342 145.213C331.709 147.902 332.392 151.033 332.392 154.608C332.392 158.182 331.709 161.306 330.342 163.979C328.991 166.653 327.076 168.733 324.598 170.22C322.12 171.707 319.191 172.45 315.812 172.45ZM315.857 165.917C317.689 165.917 319.221 165.414 320.453 164.407C321.684 163.386 322.6 162.019 323.201 160.307C323.817 158.595 324.125 156.688 324.125 154.585C324.125 152.467 323.817 150.553 323.201 148.84C322.6 147.113 321.684 145.739 320.453 144.718C319.221 143.696 317.689 143.186 315.857 143.186C313.979 143.186 312.417 143.696 311.171 144.718C309.939 145.739 309.016 147.113 308.4 148.84C307.799 150.553 307.499 152.467 307.499 154.585C307.499 156.688 307.799 158.595 308.4 160.307C309.016 162.019 309.939 163.386 311.171 164.407C312.417 165.414 313.979 165.917 315.857 165.917Z" fill="#0378FF"/>
<path d="M294.269 137.172V143.48H274.376V137.172H294.269ZM279.288 128.882H287.443V161.368C287.443 162.464 287.608 163.305 287.938 163.891C288.284 164.461 288.734 164.852 289.29 165.062C289.846 165.272 290.462 165.378 291.137 165.378C291.648 165.378 292.114 165.34 292.534 165.265C292.97 165.19 293.3 165.122 293.525 165.062L294.9 171.438C294.464 171.588 293.841 171.753 293.03 171.933C292.234 172.113 291.258 172.219 290.101 172.249C288.059 172.309 286.219 172.001 284.582 171.325C282.945 170.634 281.646 169.568 280.684 168.126C279.738 166.684 279.273 164.882 279.288 162.719V128.882Z" fill="#0378FF"/>
<path d="M249.979 171.776V137.173H257.886V142.94H258.246C258.877 140.943 259.959 139.403 261.49 138.322C263.037 137.225 264.802 136.677 266.785 136.677C267.235 136.677 267.738 136.7 268.294 136.745C268.865 136.775 269.338 136.827 269.713 136.903V144.404C269.368 144.284 268.82 144.179 268.069 144.089C267.333 143.984 266.619 143.931 265.928 143.931C264.442 143.931 263.105 144.254 261.918 144.9C260.747 145.531 259.823 146.409 259.147 147.536C258.472 148.662 258.134 149.961 258.134 151.433V171.776H249.979Z" fill="#0378FF"/>
<path d="M227.693 172.45C224.224 172.45 221.228 171.729 218.704 170.287C216.196 168.83 214.266 166.773 212.915 164.115C211.563 161.441 210.887 158.295 210.887 154.675C210.887 151.116 211.563 147.992 212.915 145.303C214.281 142.6 216.189 140.497 218.637 138.996C221.085 137.479 223.961 136.72 227.265 136.72C229.398 136.72 231.41 137.066 233.303 137.757C235.21 138.432 236.892 139.484 238.349 140.91C239.821 142.337 240.977 144.155 241.818 146.362C242.659 148.555 243.08 151.168 243.08 154.202V156.703H214.717V151.206H235.263C235.248 149.644 234.91 148.255 234.249 147.038C233.588 145.807 232.664 144.838 231.478 144.132C230.307 143.426 228.94 143.073 227.378 143.073C225.711 143.073 224.246 143.479 222.985 144.29C221.723 145.086 220.74 146.137 220.034 147.444C219.343 148.735 218.99 150.155 218.975 151.701V156.5C218.975 158.512 219.343 160.24 220.079 161.681C220.815 163.108 221.843 164.205 223.165 164.971C224.487 165.722 226.034 166.097 227.806 166.097C228.992 166.097 230.066 165.932 231.027 165.601C231.989 165.256 232.822 164.753 233.528 164.092C234.234 163.431 234.767 162.613 235.128 161.636L242.742 162.492C242.261 164.505 241.345 166.262 239.994 167.764C238.657 169.251 236.945 170.407 234.857 171.233C232.77 172.044 230.382 172.45 227.693 172.45Z" fill="#0378FF"/>
<path d="M205.079 141.204H196.654C196.414 139.822 195.971 138.598 195.325 137.532C194.679 136.451 193.875 135.535 192.914 134.784C191.953 134.033 190.857 133.469 189.625 133.094C188.409 132.703 187.094 132.508 185.683 132.508C183.175 132.508 180.952 133.139 179.014 134.401C177.077 135.647 175.56 137.479 174.464 139.897C173.367 142.3 172.819 145.237 172.819 148.706C172.819 152.235 173.367 155.209 174.464 157.627C175.575 160.03 177.092 161.847 179.014 163.079C180.952 164.296 183.167 164.904 185.66 164.904C187.042 164.904 188.333 164.724 189.535 164.363C190.751 163.988 191.84 163.439 192.802 162.719C193.778 161.998 194.596 161.112 195.257 160.06C195.933 159.009 196.399 157.807 196.654 156.456L205.079 156.501C204.764 158.694 204.081 160.751 203.029 162.674C201.993 164.596 200.634 166.293 198.952 167.765C197.27 169.222 195.302 170.363 193.049 171.189C190.797 172 188.296 172.406 185.547 172.406C181.492 172.406 177.873 171.467 174.689 169.59C171.505 167.712 168.997 165.001 167.164 161.457C165.332 157.913 164.416 153.662 164.416 148.706C164.416 143.735 165.34 139.484 167.187 135.955C169.034 132.411 171.55 129.7 174.734 127.822C177.918 125.945 181.522 125.006 185.547 125.006C188.116 125.006 190.504 125.367 192.711 126.088C194.919 126.809 196.887 127.867 198.614 129.264C200.341 130.646 201.76 132.343 202.872 134.356C203.998 136.353 204.734 138.636 205.079 141.204Z" fill="#0378FF"/>
</svg>
